<?xml version="1.0" encoding="utf-8"?>
<!-- Generator: Adobe Illustrator 26.5.0, SVG Export Plug-In . SVG Version: 6.00 Build 0)  -->
<svg version="1.1" id="Capa_1" xmlns="http://www.w3.org/2000/svg" xmlns:xlink="http://www.w3.org/1999/xlink" x="0px" y="0px"
	 viewBox="0 0 1000 1000" style="enable-background:new 0 0 1000 1000;" xml:space="preserve">
<style type="text/css">
	.st0{fill:#808080;}
	.st1{fill:#D4D4D4;}
	.st2{fill:#FFFFFF;}
	.st3{fill:#999999;}
	.st4{fill:none;}
	.st5{font-family:'ArialRoundedMTBold';}
	.st6{font-size:98.3283px;}
	.st7{letter-spacing:16;}
	.st8{font-size:43px;}
</style>
<circle class="st0" cx="501.28" cy="508.35" r="433.11"/>
<path class="st1" d="M502.11,50c253.35,0.36,457.61,206.08,456.95,460.22C958.41,761.43,753,964.97,501.5,966
	c-251.07,1.02-459.62-205.8-458.46-460.85C44.17,254,249.73,49.64,502.11,50z M501.61,77.64C263.8,77.97,70.43,270.11,70.64,505.86
	c0.21,240.48,192.46,432.95,431.82,432.3c236.63-0.64,429.21-193.3,429-429.16C931.24,270.18,739.04,77.3,501.61,77.64z"/>
<g>
	<path class="st2" d="M500.68,516.58c-20.34,0-40.69,0.15-61.03-0.03c-29.55-0.27-42.67-13.53-42.69-42.84
		c-0.02-32.46,0.23-64.93-0.15-97.38c-0.11-9.35,2.01-11.25,11.87-9.51c60.59,10.69,121.45,10.64,182.04,0.29
		c11.84-2.02,12.91,1.31,12.79,11.12c-0.41,32.46-0.15,64.92-0.16,97.38c-0.01,26.97-13.04,40.19-40.35,40.95
		c-0.87,0.02-1.73,0.02-2.6,0.02C540.5,516.58,520.59,516.58,500.68,516.58z M446.8,440.38c0,12.97,0,25.95,0,38.92
		c0,4.49,0.2,9.58,5.89,9.8c5.98,0.23,6.12-5.05,6.13-9.43c0.07-26.38,0.07-52.76,0.01-79.14c-0.01-4.35,0.07-9.74-5.85-9.71
		c-6.8,0.04-6.16,5.9-6.17,10.63C446.77,414.43,446.8,427.4,446.8,440.38z M414.46,460.83c0,6.86-0.04,13.72,0.02,20.58
		c0.03,3.67,1,7.1,5.17,7.75c4.61,0.72,6.28-3.03,6.35-6.38c0.3-14.13,0.22-28.26-0.03-42.39c-0.05-3.16-1.98-5.79-5.68-5.77
		c-4.48,0.02-5.75,3.1-5.79,6.91C414.44,447.97,414.49,454.4,414.46,460.83z"/>
	<path class="st2" d="M602.85,335.7c-1,6.25-5.81,3.35-8.95,2.71c-33.28-6.86-66.99-7.72-100.77-7.47
		c-28.58,0.21-57.08,1.53-85.22,7.27c-3.01,0.61-7.05,3.49-9.45-0.42c-2.24-3.65,1.11-6.49,3.38-8.98
		c8.93-9.82,20.87-16.84,26.21-30.04c1.7-4.21,6.31-1.52,9.17-0.08c10.73,5.38,21.63,5.36,32.81,1.93c0.41-0.13,0.9-0.4,1.25-0.29
		c20.97,6.76,42.25-0.35,63.27,1.49c9.18,0.81,18.15,2.42,26.56-2.32c7.83-4.41,12.03-2.34,15.49,5.9
		c3.61,8.58,12.2,13.23,18.72,19.5C598.43,327.9,601.79,330.75,602.85,335.7z"/>
	<path class="st2" d="M500.12,259.5c-21.64-0.18-43.2-1.55-64.4-6.07c-4.83-1.03-13.27-0.2-8.05-10.33
		c2.19-4.25-2.58-6.67-5.36-9.28c-1.87-1.76-4.19-3.81-3.03-6.61c1.5-3.62,4.45-1.15,6.64-0.67c49.68,10.98,99.34,11.15,149-0.14
		c2.35-0.53,5.29-2.57,6.86,0.53c1.37,2.7-0.98,4.98-2.98,6.54c-4.82,3.77-7.22,7.03-4.33,14.12c2.08,5.1-5.13,5.06-8.68,5.79
		C544.15,257.85,522.19,259.45,500.12,259.5z"/>
	<path class="st2" d="M541.89,290.78c-11.66-4.69-25.03-2.97-38.56,1.52c-3.3,1.09-7.77-0.14-11.35-1.34
		c-9.71-3.26-19.27-4.35-29.2-1.03c-4.09,1.37-8.53,2.2-12.72,0.39c-12.62-5.44-25.48-7.49-39.17-4.6c-3.53,0.74-8.61,0.01-9.9-4.29
		c-1.41-4.68,3.21-7.11,6.51-8.37c11.23-4.29,22.57-7.75,35.09-5.89c38.29,5.69,76.68,6.14,114.97-0.03
		c12.97-2.09,24.72,1.52,36.32,6.29c3.14,1.29,7.01,3.64,6.34,7.35c-0.82,4.53-5.83,5.14-9.51,5.1c-8.15-0.08-16.19-2.95-24.47-0.9
		C558.77,286.82,552.17,291.94,541.89,290.78z"/>
	<path class="st2" d="M596.83,352.22c-27.34,13.38-163.71,13.37-191.13,0.94C426.81,340.13,556.7,339.12,596.83,352.22z"/>
	<path class="st2" d="M578.35,213.53c-53,12.28-103.2,12.15-154.77,0.28C446.48,198,548.3,197.32,578.35,213.53z"/>
	<path class="st3" d="M446.8,440.38c0-12.97-0.03-25.95,0.01-38.92c0.01-4.74-0.62-10.6,6.17-10.63c5.93-0.03,5.85,5.36,5.85,9.71
		c0.05,26.38,0.05,52.76-0.01,79.14c-0.01,4.38-0.15,9.66-6.13,9.43c-5.69-0.22-5.89-5.31-5.89-9.8
		C446.81,466.32,446.8,453.35,446.8,440.38z"/>
	<path class="st3" d="M414.48,460.83c0.01-6.43-0.04-12.87,0.03-19.3c0.04-3.81,1.31-6.89,5.79-6.91c3.7-0.02,5.62,2.61,5.68,5.77
		c0.24,14.13,0.33,28.27,0.03,42.39c-0.07,3.35-1.74,7.09-6.35,6.38c-4.18-0.65-5.15-4.07-5.17-7.75
		C414.43,474.56,414.46,467.7,414.48,460.83z"/>
</g>
<rect x="122.53" y="586.41" class="st4" width="842.81" height="226.59"/>
<text transform="matrix(1 0 0 1 307.5186 657.9971)" class="st2 st5 st6 st7">INNATO</text>
<rect x="1586.65" y="441.62" class="st4" width="774.92" height="64.89"/>
<text transform="matrix(1 0 0 1 1746.4229 477.4102)" class="st2 st5" style="font-size:49.1642px;">TIENDA GOURMET</text>
<rect x="1224.02" y="-98.67" class="st4" width="842.81" height="226.59"/>
<text transform="matrix(1 0 0 1 1391.0964 -28.2702)" class="st2 st6" style="font-family:'Arial-Black'; letter-spacing:15;">INNATO</text>
<rect x="107.97" y="699.54" class="st4" width="774.92" height="64.89"/>
<text transform="matrix(1 0 0 1 296.294 730.8394)" class="st2 st5 st8">TIENDA GOURMET</text>
</svg>
