<?xml version="1.0" encoding="utf-8"?>
<!-- Generator: Adobe Illustrator 26.5.0, SVG Export Plug-In . SVG Version: 6.00 Build 0)  -->
<svg version="1.1" id="Capa_1" xmlns="http://www.w3.org/2000/svg" xmlns:xlink="http://www.w3.org/1999/xlink" x="0px" y="0px"
	 viewBox="0 0 900 768" style="enable-background:new 0 0 900 768;" xml:space="preserve">
<style type="text/css">
	.st0{fill:none;}
	.st1{fill:#FFFFFF;}
	.st2{font-family:'MyriadPro-Regular';}
	.st3{font-size:25px;}
	.st4{font-family:'ArialRoundedMTBold';}
	.st5{font-size:36px;}
	.st6{fill:#F7931E;}
	.st7{fill:none;stroke:#F7931E;stroke-miterlimit:10;}
</style>
<g>
	<path d="M192.46,564.8c-19.07,0-34.58-15.51-34.58-34.58V238.38c0-19.07,15.51-34.58,34.58-34.58h514.83
		c19.07,0,34.58,15.51,34.58,34.58v291.83c0,19.07-15.51,34.58-34.58,34.58H192.46z"/>
	<path d="M707.29,204.3c18.79,0,34.08,15.29,34.08,34.08v291.83c0,18.79-15.29,34.08-34.08,34.08H192.46
		c-18.79,0-34.08-15.29-34.08-34.08V238.38c0-18.79,15.29-34.08,34.08-34.08H707.29 M707.29,203.3H192.46
		c-19.38,0-35.08,15.71-35.08,35.08v291.83c0,19.38,15.71,35.08,35.08,35.08h514.83c19.38,0,35.08-15.71,35.08-35.08V238.38
		C742.38,219,726.67,203.3,707.29,203.3L707.29,203.3z"/>
</g>
<rect x="274.19" y="501.62" class="st0" width="146.18" height="27.67"/>
<text transform="matrix(1 0 0 1 274.1943 519.375)" class="st1 st2 st3">JUAN PEREZ</text>
<rect x="353.97" y="273.3" class="st0" width="146.4" height="67"/>
<text transform="matrix(1 0 0 1 353.9736 299.5049)" class="st1 st4 st5">INNATO</text>
<g>
	<path class="st6" d="M473.73,334.38c-0.53-2.42-0.76-4.86-0.7-7.32s0.38-4.84,0.96-7.16c0.58-2.32,1.39-4.5,2.45-6.56
		c1.05-2.06,2.29-3.91,3.72-5.56c1.43-1.65,3.03-3.04,4.81-4.17c1.78-1.13,3.69-1.92,5.72-2.36c2.38-0.52,4.35-0.42,5.89,0.29
		c1.55,0.71,2.52,1.97,2.91,3.76c0.15,0.69,0.21,1.42,0.18,2.19c-0.03,0.77-0.15,1.54-0.36,2.33c-0.21,0.79-0.48,1.56-0.82,2.32
		c-0.34,0.76-0.75,1.45-1.23,2.06c-0.93,0.06-1.79-0.18-2.6-0.71s-1.39-1.22-1.76-2.09c0.99-1.26,1.72-2.52,2.19-3.76
		c0.47-1.24,0.61-2.31,0.41-3.21c-0.33-1.52-1.45-2.07-3.34-1.66c-0.79,0.17-1.58,0.52-2.35,1.03c-0.77,0.51-1.53,1.16-2.26,1.93
		c-0.74,0.78-1.42,1.67-2.05,2.67c-0.63,1.01-1.18,2.08-1.65,3.24c-3.29,7.95-4.15,15.53-2.58,22.75c0.56,2.56,1.4,4.52,2.54,5.9
		c1.13,1.38,2.38,2.07,3.76,2.06c1.41-0.67,3.08-2.03,5.02-4.08c1.94-2.05,3.98-4.61,6.14-7.68c0.42,0.27,0.71,0.59,0.86,0.95
		c-0.72,1.52-1.48,3.01-2.29,4.44c-0.81,1.44-1.63,2.77-2.47,3.99c-0.84,1.23-1.68,2.33-2.53,3.31c-0.85,0.98-1.67,1.77-2.44,2.37
		c-4.28,0.93-7.79,0.45-10.52-1.45C476.61,342.28,474.74,339.01,473.73,334.38z"/>
	<path class="st6" d="M503.85,334.93c-0.33-1.52-0.43-3.73-0.31-6.63c0.13-2.9,0.45-6.33,0.96-10.27c0.87-6.3,1.82-11.6,2.85-15.89
		c1.03-4.29,2.21-7.72,3.53-10.29c0.43-0.02,0.98,0.04,1.64,0.19c0.66,0.15,1.32,0.32,1.98,0.52c0.66,0.2,1.26,0.42,1.8,0.67
		c0.54,0.24,0.9,0.45,1.09,0.63c-2,3.76-3.62,7.7-4.86,11.8c-1.24,4.1-2.19,8.71-2.85,13.8c-0.56,4.39-0.87,8.3-0.91,11.73
		c-0.05,3.43,0.16,6.23,0.64,8.4c0.13,0.59,0.21,0.95,0.24,1.09c0.03,0.14,0.08,0.27,0.14,0.4c-0.5,0.04-0.94,0.01-1.32-0.09
		c-0.38-0.1-0.65-0.26-0.81-0.47c-0.11-0.16-0.35-0.37-0.73-0.63c-0.38-0.26-0.71-0.45-0.99-0.57c-0.36-0.14-0.73-0.63-1.13-1.46
		C504.41,337.01,504.09,336.04,503.85,334.93z"/>
	<path class="st6" d="M530.68,331.36c-0.78-0.41-1.37-1-1.77-1.78c-0.4-0.78-0.67-1.46-0.8-2.05c-0.16-0.73-0.21-1.37-0.15-1.92
		c-0.14,0.03-0.39,0.37-0.75,1.03c-0.36,0.66-0.75,1.42-1.15,2.31c-0.4,0.88-0.81,1.74-1.2,2.59c-0.39,0.84-0.69,1.47-0.89,1.87
		c-0.34,0.58-0.68,1.05-1.02,1.41c-0.34,0.36-0.62,0.59-0.86,0.67c-0.55,0.12-1.15,0.15-1.8,0.09c-0.65-0.06-1.28-0.2-1.89-0.44
		c-0.61-0.23-1.17-0.55-1.67-0.95c-0.5-0.4-0.89-0.9-1.17-1.49c-0.21-0.97-0.36-1.77-0.44-2.4c-0.08-0.63-0.12-1.33-0.1-2.09
		c0.03-1.38,0.16-2.96,0.4-4.75c0.24-1.79,0.59-3.57,1.03-5.35c0.44-1.78,1-3.47,1.68-5.09c0.68-1.61,1.48-2.94,2.42-3.97
		c0.31-0.07,0.68-0.12,1.1-0.16c0.43-0.04,0.87-0.04,1.33,0.01c0.46,0.04,0.91,0.12,1.35,0.22c0.44,0.1,0.83,0.28,1.17,0.53
		c-0.23,0.41-0.77,1.74-1.6,3.98c-0.83,2.24-1.62,5.38-2.37,9.41c-0.09,0.42-0.18,1.01-0.26,1.79c-0.08,0.78-0.16,1.59-0.23,2.44
		c-0.07,0.85-0.1,1.67-0.09,2.46c0.01,0.79,0.06,1.42,0.16,1.86c0.06,0.28,0.15,0.47,0.27,0.59c0.12,0.12,0.22,0.21,0.3,0.26
		c0.47-0.32,1-1.03,1.59-2.14c0.59-1.1,1.38-2.78,2.38-5.02c0.24-0.56,0.53-1.2,0.86-1.92c0.33-0.72,0.66-1.49,0.99-2.3
		c0.33-0.81,0.63-1.65,0.89-2.5c0.27-0.85,0.45-1.69,0.57-2.51c0.05-0.44,0.12-0.98,0.22-1.59c0.1-0.62,0.25-1.27,0.44-1.97
		c0.19-0.69,0.43-1.41,0.73-2.14c0.29-0.73,0.67-1.44,1.14-2.12c0.45-0.1,0.94-0.15,1.48-0.16c0.54-0.01,1.06,0.01,1.56,0.07
		c0.5,0.05,0.94,0.14,1.33,0.25c0.39,0.12,0.69,0.26,0.91,0.43c-0.29,1.66-0.65,3.31-1.09,4.96c-0.44,1.65-0.83,3.26-1.17,4.84
		c-0.34,1.58-0.59,3.12-0.73,4.63c-0.14,1.51-0.06,2.94,0.23,4.29c0.16,0.73,0.36,1.34,0.59,1.85c0.24,0.51,0.46,0.93,0.68,1.26
		c0.22,0.33,0.41,0.61,0.59,0.82c0.17,0.21,0.28,0.41,0.32,0.58c0.01,0.03-0.02,0.09-0.07,0.18c-0.03,0.04-0.06,0.07-0.09,0.07
		c-0.24,0.05-0.56,0.07-0.97,0.05c-0.4-0.02-0.86-0.08-1.36-0.16c-0.51-0.09-1.02-0.2-1.54-0.34
		C531.65,331.71,531.15,331.55,530.68,331.36z"/>
	<path class="st6" d="M547.06,329.36c1.35-1.42,2.61-3.13,3.76-5.13c1.15-2.01,2.14-4.12,2.96-6.34c0.82-2.22,1.43-4.48,1.83-6.77
		c0.4-2.29,0.55-4.44,0.44-6.44c-0.09-0.41-0.37-0.64-0.85-0.68c-0.48,0.11-1.06,0.67-1.72,1.7c-0.66,1.03-1.36,2.31-2.09,3.85
		c-0.73,1.53-1.45,3.23-2.15,5.08c-0.7,1.85-1.31,3.68-1.82,5.47c-0.51,1.79-0.92,3.45-1.22,4.98c-0.3,1.53-0.39,2.73-0.27,3.61
		c-0.35,0.08-0.71-0.21-1.11-0.84c-0.11-0.16-0.27-0.31-0.48-0.46c-0.21-0.15-0.54-0.32-0.98-0.52c-0.2-0.1-0.41-0.23-0.63-0.38
		c-0.21-0.15-0.37-0.29-0.47-0.41c-0.2-0.25-0.37-0.68-0.5-1.3c-0.44-2.04-0.69-4.39-0.73-7.06c-0.04-2.67,0.07-5.42,0.34-8.27
		c0.27-2.84,0.69-5.67,1.27-8.49c0.58-2.82,1.25-5.43,2.01-7.84c0.76-2.41,1.6-4.49,2.52-6.24c0.92-1.76,1.88-2.99,2.88-3.72
		c0.37,0.03,0.82,0.11,1.36,0.25c0.54,0.14,1.08,0.31,1.63,0.51c0.55,0.21,1.08,0.42,1.58,0.63c0.5,0.22,0.88,0.42,1.14,0.62
		c-3.13,3.9-5.56,8.56-7.28,13.98c-1.73,5.42-2.76,11.6-3.09,18.55c0.57-2.01,1.28-3.98,2.13-5.92c0.84-1.94,1.72-3.67,2.63-5.21
		c0.91-1.54,1.83-2.8,2.75-3.8c0.92-1,1.74-1.57,2.47-1.73c0.58,0.02,1.17,0.14,1.76,0.37c0.59,0.23,1.15,0.55,1.68,0.96
		c0.52,0.41,0.98,0.87,1.39,1.38c0.4,0.51,0.7,1.07,0.91,1.67c0.28,1.46,0.37,3.06,0.26,4.8c-0.11,1.74-0.38,3.49-0.81,5.25
		c-0.43,1.76-0.98,3.47-1.65,5.13c-0.67,1.66-1.43,3.16-2.28,4.48c-0.85,1.32-1.75,2.43-2.69,3.33c-0.94,0.89-1.9,1.45-2.87,1.66
		c-0.41,0.09-0.85,0.14-1.3,0.15c-0.45,0.01-0.87-0.03-1.27-0.1c-0.4-0.08-0.73-0.18-0.99-0.3
		C547.24,329.68,547.1,329.53,547.06,329.36z"/>
</g>
<rect x="274.62" y="469.43" class="st0" width="231.76" height="25.86"/>
<text transform="matrix(1 0 0 1 274.6162 487.6318)" class="st1 st4 st3">1234 5678 7890</text>
<line class="st7" x1="232.38" y1="439.3" x2="663.38" y2="439.3"/>
</svg>
